Patient4_TMGait_0pt5_01_right_41_EMG.mot
version=1
nRows=37
nColumns=33
inDegrees=no
endheader
time	1LAddLong	2LGlutMax	3LGlutMed	4LIliopsoas	5LSemiMemb	6LBicFemLong	7LRecFem	8LVastMed	9LVastLat	10LGasMed	11LTibAnt	12lTibPost	13LPeroneusLong	14LSol	15LExtDigLong	16LFlexDigLong	17RAddLong	18RGlutMax	19RGlutMed	20RIliopsoas	21RSemiMemb	22RBicFemLong	23RRecFem	24RVastMed	25RVastLat	26RGasMed	27RTibAnt	28RTibPost	29RPeroneusLong	30RSol	31RExtDigLong	32RFlexDigLong
54.46	0.000305	-0.48752	-0.065002	0.010986	0.002747	-0.012512	0.14725	-0.006866	0.15243	-0.058899	-0.24414	0.000916	-0.026855	-0.11322	-0.42938	-0.015717	0.00824	-0.5661	0.12207	-0.029602	0.10529	-0.32333	0.052338	-0.03479	-0.023956	-0.050354	0.075073	-0.016174	-0.99579	-2.4994	0.001221	-0.020447
54.461	0.001831	-0.51712	-0.061646	0.013275	0.006561	-0.016632	0.11719	-0.014954	0.15869	-0.050354	-0.18173	0.000153	-0.075836	-0.092773	-0.3595	-0.028687	0.028381	-0.52948	0.077362	-0.103	-0.027771	-0.32349	-0.001831	-0.009003	-0.005798	-0.13245	-0.004425	-0.38345	-0.85983	-2.1762	-0.002289	-0.030212
54.462	0.047455	-0.50049	-0.076752	0.004272	0.001831	-0.015564	0.065308	-0.017395	0.15411	-0.021362	-0.1741	0.000458	-0.089417	-0.29465	-0.31738	-0.022888	0.023346	-0.54245	-0.18387	-0.028687	-0.20355	-0.24445	0.002441	0.074463	-0.018005	-0.23987	-0.084991	-0.66727	-0.551	-0.60577	-0.00412	-0.022125
54.463	-0.026093	-0.53879	-0.078278	0.011139	-0.001526	-0.02533	0.10239	-0.017242	0.15198	-0.016174	-0.054932	-0.005341	-0.10727	-0.32303	-0.18982	-0.015717	0.007019	-0.52124	-0.29602	0.020905	-0.24475	-0.20081	0.004425	0.095215	-0.01297	-0.042725	-0.1236	-0.52673	-0.3862	0.96741	-0.004578	-0.019836
54.464	0.019379	-0.53268	-0.076447	-0.003815	-0.004883	-0.041962	0.11353	-0.010223	0.14404	-0.019379	0.093842	-0.00412	-0.097351	-0.17609	-0.19623	-0.010223	-0.004578	-0.49194	0.43167	0.043488	-0.24155	0.035553	0.075531	0.067596	-0.023651	0.041504	-0.045929	-0.31021	-0.093689	1.9066	-0.008087	-0.022736
54.465	0.004578	-0.53116	-0.086365	0.005798	-0.00824	-0.037079	0.093536	-0.005341	0.13931	-0.034637	0.15823	-0.006714	-0.092316	-0.024719	0.20081	-0.011749	-0.032654	-0.52856	0.05249	0.070343	-0.002899	0.28122	0.12497	0.09201	-0.036163	-0.13016	-0.072632	-0.93765	0.9346	2.1866	-0.001678	-0.018005
54.466	0.000305	-0.54047	-0.083771	-0.001831	-0.00946	-0.033722	-0.062256	-0.003815	0.13947	-0.061035	0.41504	-0.008545	-0.12375	0.12619	0.14664	0.007172	-0.034485	-0.49072	-0.18539	0.12756	0.26352	0.24628	0.088959	0.13473	-0.029602	-0.033569	0.15686	1.1038	1.0081	1.7372	-0.00946	-0.000916
54.467	0.013885	-0.53589	-0.093079	-0.015717	-0.007324	-0.041656	-0.15945	-0.003052	0.14343	-0.066223	0.24994	-0.001068	-0.13031	0.16647	0.94955	0.001831	-0.019226	-0.5275	-0.4602	0.121	0.22644	0.11917	0.098724	0.13718	-0.001373	0.15228	0.38803	1.245	0.48462	2.2496	-0.005341	0.019379
54.468	0.007477	-0.49439	-0.10864	0.004883	0.017242	-0.045929	-0.22324	-0.006256	0.15457	-0.07431	0.29297	-0.000916	-0.19104	0.1828	1.7545	0.005646	-0.023041	-0.50842	-0.67383	-0.015106	0.039215	0.072327	0.11215	0.048218	0.026245	0.12329	0.62759	0.53162	0.34866	2.7449	-0.009308	0.018921
54.469	0.000763	-0.48096	-0.10956	0.020447	0.019989	-0.02655	-0.32013	-0.010986	0.1535	-0.10559	-0.088043	0	-0.11383	0.18387	-0.075684	0.019379	-0.026245	-0.58395	-1.0202	-0.019531	-0.088806	0.036163	0.055695	0.096893	0.069885	0.066681	0.84228	0.40298	0.22903	1.4284	-0.003662	0.019073
54.47	0.002289	-0.45013	-0.12375	0.018311	0.01358	0.003204	-0.38055	-0.003967	0.159	-0.13702	-0.22156	0.000916	0.012207	0.24506	-0.2002	0.022278	-0.047302	-0.48187	-1.3206	-0.046082	-0.09491	0.052948	-0.030518	0.082703	0.041351	0.024414	0.39291	0.036469	0.37872	-0.054321	-0.004272	0.008545
54.471	0.009766	-0.46036	-0.13748	0.009308	0.005188	-0.015106	-0.33005	-0.006714	0.14954	-0.098267	-0.15732	-0.011292	-0.018768	0.25513	-0.76477	0.006866	-0.031128	-0.40283	-1.2828	-0.056763	-0.039215	-0.040436	0.024261	0.014954	0.030975	0.047455	-0.55878	-0.015717	0.47134	-0.77209	-0.00473	0.010529
54.472	0.003204	-0.46005	-0.13504	0.005035	0.014801	-0.005188	-0.34195	-0.00946	0.14297	-0.058289	-0.14008	-0.007172	-0.011749	0.1503	-0.8432	-0.00885	0.010071	-0.48859	-0.074005	-0.16556	0.12543	-0.25467	0.14206	-0.045624	0.007935	0.057678	-1.0388	0.006561	0.6192	-0.51132	0.001373	0.00824
54.473	0.00351	-0.46829	-0.14374	0.00412	0.005646	-0.014801	-0.34012	-0.015411	0.10727	-0.048828	-0.11719	-0.005951	0.000305	0.05722	-0.69275	-0.007477	0.039825	-0.52094	0.64987	-0.12283	0.12405	-0.22095	0.1445	0.002899	0.009308	0.069885	-1.0106	0.003662	0.43366	0.28595	-0.001373	0.001984
54.474	0.002136	-0.4805	-0.14832	-0.007629	0.008392	-0.020905	-0.22079	-0.002136	0.10468	-0.003052	-0.091248	-0.009918	-0.009766	-0.010071	-0.55252	-0.013123	0.06012	-0.41046	-0.23697	-0.094147	0.044861	-0.1152	0.121	-0.008392	0.001068	0.082092	-0.79544	-0.007477	0.20844	0.58853	-0.002441	-0.003967
54.475	0.004272	-0.47455	-0.1622	-0.009766	0.002441	-0.014954	-0.20599	-0.019073	0.10223	0.015106	-0.058136	-0.010071	-0.11017	0.005188	-0.27527	-0.008545	0.038605	-0.31677	-0.30502	-0.03006	0.005493	-0.028229	0.041199	0.006256	-0.058594	0.082855	-0.95718	-0.099945	0.23254	0.77621	-0.001526	-0.011597
54.476	0.00351	-0.43167	-0.16754	0.015717	-0.001984	-0.000763	-0.20248	-0.007019	0.10788	0.009155	0.095062	-0.005035	-0.069427	0.061646	-0.18204	0.001221	-0.009918	-0.25803	-0.16129	-0.018921	0.071716	-0.001373	-0.022278	-0.014801	-0.013885	0.016479	-0.83191	-0.17059	0.10346	0.29373	0.000153	-0.011292
54.477	0.008545	-0.43564	-0.18188	0.02182	0.004272	-0.000153	-0.11963	-0.004883	0.096283	-0.023346	0.14816	-0.011292	-0.026703	0.11581	0.17792	0.013123	-0.044861	-0.10834	0.36209	0.086975	0.005798	0.026245	-0.024261	-0.13199	-0.020905	0.001831	-0.36529	-0.070343	-0.25482	0.19134	-0.001526	-0.014343
54.478	0.010986	-0.42526	-0.19089	0.003967	0.005188	0.005646	-0.019836	-0.001526	0.071259	-0.015259	0.076904	-0.009613	-0.036926	0.18982	0.38147	0.012054	-0.027008	-0.077515	0.37964	0.099182	-0.034027	-0.072327	0.039368	-0.04425	-0.024872	0.016785	0.29053	-0.085449	-0.55115	0.49484	0.003052	-0.016785
54.479	0.005798	-0.45212	-0.19898	0.003204	-0.006714	0.012054	-0.019379	-0.008545	0.063019	-0.001526	0.004425	-0.010986	-0.080261	0.11444	0.3949	0.007477	-0.00473	-0.29587	-0.68527	0.034332	-0.029297	-0.25543	-0.001373	0.038452	0.016174	-0.052338	1.2738	-0.13458	-0.031891	1.0103	0.001221	-0.016785
54.48	0.008698	-0.43594	-0.16495	0.016479	0.005493	0.010681	0.065002	-0.006714	0.051727	0.02121	0.1059	-0.005798	-0.14496	0.025482	0.54413	0.02121	0.028839	-0.34683	-1.0411	0.097504	-0.016937	0.26276	0.059052	-0.031433	-0.016937	-0.23407	1.685	-0.15701	0.3093	0.81665	-0.00885	-0.022888
54.481	0.013428	-0.37659	-0.13672	0.010223	0.001068	0.006104	0.21927	-0.004272	0.043335	0.005188	0.21942	-0.006561	-0.077972	0.021362	1.1714	0.023499	0.017548	-0.28091	-0.25894	0.037842	-0.11246	0.62424	0.056458	-0.17349	-0.037537	-0.13825	0.72327	-0.057068	0.36362	0.16235	0.002289	-0.023804
54.482	0.008392	-0.3157	-0.12711	-0.026245	0.001221	0.002441	0.17929	0.002899	0.032043	-0.007782	0.13825	0.006256	-0.065765	0.11063	0.28824	0.011139	0.002289	-0.17197	-0.24368	-0.01709	-0.21576	0.56595	-0.1413	-0.17624	0.072174	-0.07431	0.61478	0.027924	0.14801	-0.32822	0.001831	-0.02121
54.483	0.002747	-0.31357	-0.15945	-0.014343	0.011292	-0.00412	0.097809	0.019226	0.022736	0.018768	-0.010376	-0.000305	-0.089722	0.15945	-0.10101	0.015564	0.010681	-0.21347	-0.22858	-0.003662	-0.10361	0.27924	-0.19272	-0.112	0.058899	-0.009003	-0.22949	-0.02121	0.24384	-0.99152	-0.00412	-0.024414
54.484	0.001373	-0.29037	-0.19134	-0.006714	0.004272	0.022888	0.10483	0.019989	0.016327	0.032196	-0.18875	0.004272	-0.046082	0.20752	-0.16144	0.009003	0.010071	-0.31509	-0.37399	-0.089569	-0.0177	-0.069733	-0.088348	0.087433	0.14145	0.081024	-0.9903	-0.043182	0.36362	-1.7836	-0.002594	-0.027466
54.485	-0.006104	-0.24689	-0.1651	-0.010834	0.00061	0.016022	0.16388	0.018005	0.013428	0.030518	-0.074005	0.003662	-0.087738	0.17303	-0.41397	-0.00061	-0.023041	-0.18951	-0.34622	-0.1355	0.02655	-0.44495	-0.17273	0.18631	0.15243	0.097351	-1.5704	-0.028687	0.2182	-1.8388	0.001984	-0.018311
54.486	-0.003357	-0.18692	-0.13916	-0.005646	-0.001678	0.016785	0.13504	0.022583	-0.00061	0.037537	0.003357	0.00412	-0.040588	0.15579	-0.22171	0.001526	0.016937	-0.088806	-0.51712	-0.094452	-0.059357	-0.35385	-0.17944	0.12421	0.069275	0.072174	-0.70526	-0.033112	-0.25803	-1.2791	-0.001678	-0.02121
54.487	0.007935	-0.2214	-0.1535	0.000763	0.005646	0.021515	0.039063	0.019989	-0.013885	0.024261	-0.022736	0.00824	0.023041	0.019836	-0.20279	0.009613	0.067444	-0.026093	-0.55527	-0.054932	-0.35034	-0.12085	0.012665	0.055542	0.053864	0.017548	-0.91354	-0.20645	0.15961	-1.149	0.00061	-0.022583
54.488	-0.008392	-0.21545	-0.177	0.002899	0.007477	0.023804	-0.018158	0.014343	-0.019379	0.039063	-0.037842	0.009766	-0.001221	-0.080261	-0.42053	-0.000153	0.032196	0.10254	-0.44968	0.021667	-0.52033	-0.037994	0.050507	0.16647	0.095673	-0.068817	-0.91065	-0.033722	0.45136	-1.1693	0.00061	-0.023346
54.489	-0.005493	-0.22492	-0.21896	-0.002289	0.007477	0.008698	-0.093994	0.012665	-0.016174	0.056	-0.099792	0.006561	-0.052948	-0.011292	-0.46432	-0.005951	-0.018158	0.18753	-0.32883	0.1326	-0.18967	0.1799	0.003357	0.12955	0.1088	-0.27481	0.18707	0.067444	0.34256	-1.1053	-0.006409	-0.026855
54.49	0.006561	-0.24506	-0.24796	-0.014038	0.000458	0.015259	-0.16373	0.012665	-0.010834	0.06958	-0.18616	0.00885	-0.041962	0.03891	-0.401	-0.00824	-0.055237	0.14999	-0.35172	0.103	0.21011	0.12695	-0.023041	0.24689	0.10208	-0.30014	0.36835	-0.037537	0.33157	-0.80368	0.000763	-0.024261
54.491	0.012665	-0.23071	-0.25024	-0.001221	0.003815	0.003815	-0.10422	0.019226	-0.010986	0.084381	-0.10483	0.010223	-0.030823	0.071259	-0.29938	-0.012665	-0.030365	0.27023	-0.11444	0.015259	0.38498	0.14358	0.062256	0.26932	0.051575	-0.2887	0.024719	-0.099487	-0.075378	-0.20233	-0.001984	-0.011444
54.492	0.016937	-0.16403	-0.24399	0.006561	0.011597	0.018463	-0.11536	0.017853	-0.02594	0.077972	0.069275	0.00885	-0.063477	0.075684	0.20462	-0.015106	0.018005	0.50522	-0.1506	0.011139	0.37231	-0.03418	0.12772	0.18997	0.030212	-0.23056	-0.12299	-0.14938	-0.99823	0.45242	0.001831	-0.00885
54.493	0.009155	-0.15457	-0.2359	0.005493	0.010834	0.025787	-0.13641	0.022278	-0.027466	0.053101	0.085754	0.011902	-0.039368	0.027466	0.18707	-0.010681	0.067291	0.53024	-0.5072	0.075378	0.17273	-0.062408	0.21545	-0.010681	-0.019989	-0.49774	-0.12817	-0.31952	-1.1986	0.71838	-0.000916	-0.014038
54.494	0.012665	-0.15671	-0.24658	0.005646	0.009308	0.025787	-0.22278	0.014038	-0.028229	0.07431	0.079346	0.011139	-0.065613	-0.024719	0.11734	-0.005798	0.074158	0.5954	-0.62775	0.055237	0.1384	-0.088959	0.25742	-0.13886	-0.067291	-0.63507	-0.24994	-0.16251	-0.67627	0.84503	0.000916	0.001526
54.495	-0.007629	-0.10834	-0.24445	0.010834	0.005341	0.006256	-0.17563	0.013275	-0.041809	0.10101	0.14114	0.012512	-0.12344	-0.11108	0.12787	-0.002747	0.048218	0.62057	-0.29572	0.057983	-0.12116	0.043793	0.25192	-0.10696	-0.049591	-0.38132	-0.21316	-0.23453	-0.60318	0.36255	-0.00351	0.003052
54.496	0.005341	-0.062714	-0.23346	0.003967	0.00412	0.028229	0.017853	0.018158	-0.033875	0.073853	0.008698	0.012054	-0.0914	0.00946	0.10468	0.000916	-0.007935	0.68146	0.28732	0.032654	-0.13901	0.24536	0.25955	-0.074615	-0.04425	0.11719	0.008087	-0.06073	-0.37949	-0.0914	0.000458	-0.010071
